Coordinates
version=1
nRows=72
nColumns=19
inDegrees=yes

Units are S.I. units (second, meters, Newtons, ...)
Angles are in degrees.

endheader
time	1_Force_X	1_Force_Y	1_Force_Z	1_Moment_X	1_Moment_Y	1_Moment_Z	1_COP_X	1_COP_Y	1_COP_Z	2_Force_X	2_Force_Y	2_Force_Z	2_Moment_X	2_Moment_Y	2_Moment_Z	2_COP_X	2_COP_Y	2_COP_Z
1.4675	76.618	882.700	20.315	-0.318	0.000	0.461	46.872	833.254	-50.204	-0.405	0.000	0.085	0.00000	23.85789	0.00000	0.00000	-0.06083	0.00000
1.4700	76.975	880.429	19.695	-0.318	0.000	0.461	47.191	833.237	-52.432	-0.405	0.000	0.085	0.00000	23.67973	0.00000	0.00000	-0.00293	0.00000
1.4725	77.507	879.192	18.716	-0.318	0.000	0.461	47.516	833.386	-55.406	-0.405	0.000	0.085	0.00000	23.45085	0.00000	0.00000	0.07404	0.00000
1.4750	77.998	876.741	17.828	-0.318	0.000	0.461	47.712	832.673	-58.908	-0.405	0.000	0.085	0.00000	23.21992	0.00000	0.00000	0.21066	0.00000
1.4775	78.483	874.291	16.721	-0.318	0.000	0.461	48.073	831.110	-60.967	-0.405	0.000	0.084	0.00000	23.04193	0.00000	0.00000	0.27763	0.00000
1.4800	78.928	872.371	16.147	-0.318	0.000	0.461	48.260	829.723	-62.981	-0.405	0.000	0.084	0.00000	22.91680	0.00000	0.00000	0.42087	0.00000
1.4825	79.543	870.617	15.082	-0.318	0.000	0.461	48.310	826.104	-64.434	-0.405	0.000	0.084	0.00000	22.82658	0.00000	0.00000	0.49004	0.00000
1.4850	80.158	870.597	13.927	-0.318	0.000	0.461	48.052	823.520	-65.490	-0.405	0.000	0.084	0.00000	22.65135	0.00000	0.00000	0.51468	0.00000
1.4875	80.336	869.022	12.864	-0.318	0.000	0.461	47.668	820.243	-67.382	-0.405	0.000	0.084	0.00000	22.47398	0.00000	0.00000	0.54029	0.00000
1.4900	80.552	868.138	11.757	-0.318	0.000	0.461	47.330	817.130	-69.929	-0.404	0.000	0.084	0.00000	22.34317	0.00000	0.00000	0.53252	0.00000
1.4925	80.816	867.257	10.827	-0.318	0.000	0.461	47.307	813.152	-73.437	-0.405	0.000	0.084	0.00000	22.18595	0.00000	0.00000	0.69385	0.00000
1.4950	81.391	865.156	9.852	-0.318	0.000	0.461	45.973	810.206	-76.993	-0.405	0.000	0.084	0.00000	22.02257	0.00000	0.00000	0.71314	0.00000
1.4975	81.917	863.576	8.965	-0.318	0.000	0.461	45.203	805.889	-80.248	-0.404	0.000	0.084	0.00000	21.91730	0.00000	0.00000	0.79928	0.00000
1.5000	82.313	861.826	7.859	-0.318	0.000	0.461	44.214	799.509	-83.330	-0.405	0.000	0.083	0.00000	21.80588	0.00000	0.00000	0.90664	0.00000
1.5025	82.665	858.335	6.710	-0.318	0.000	0.461	43.223	793.306	-86.021	-0.405	0.000	0.083	0.00000	21.65674	0.00000	0.00000	1.02936	0.00000
1.5050	83.326	855.011	5.691	-0.318	0.000	0.461	42.059	787.265	-89.365	-0.405	0.000	0.083	0.00000	21.45380	0.00000	0.00000	1.01286	0.00000
1.5075	83.461	851.693	4.851	-0.318	0.000	0.461	40.507	781.050	-93.369	-0.405	0.000	0.083	0.00000	21.20674	0.00000	0.00000	1.05834	0.00000
1.5100	83.292	847.517	3.751	-0.318	0.000	0.460	38.212	774.834	-97.508	-0.404	0.000	0.083	0.00000	20.98868	0.00000	0.00000	0.96830	0.00000
1.5125	83.559	842.461	2.915	-0.318	0.000	0.460	35.827	767.250	-100.995	-0.405	0.000	0.083	0.00000	20.79233	0.00000	0.00000	0.98979	0.00000
1.5150	83.830	836.713	2.166	-0.318	0.000	0.460	33.567	758.641	-103.871	-0.404	0.000	0.083	0.00000	20.59071	0.00000	0.00000	1.01750	0.00000
1.5175	83.791	829.401	1.113	-0.318	0.000	0.460	31.743	747.798	-106.750	-0.404	0.000	0.082	0.00000	20.35226	0.00000	0.00000	1.10366	0.00000
1.5200	83.800	820.524	0.151	-0.318	0.000	0.460	29.046	737.994	-109.236	-0.404	0.000	0.082	0.00000	20.08580	0.00000	0.00000	1.24934	0.00000
1.5225	84.115	810.772	-1.123	-0.318	0.000	0.460	26.997	725.956	-111.158	-0.404	0.000	0.082	0.00000	19.80775	0.00000	0.00000	1.37348	0.00000
1.5250	83.511	798.946	-1.946	-0.319	0.000	0.460	24.073	713.412	-112.560	-0.404	0.000	0.082	0.00000	19.47090	0.00000	0.00000	1.51385	0.00000
1.5275	82.997	785.036	-2.943	-0.319	0.000	0.459	21.147	700.010	-113.918	-0.404	0.000	0.082	0.00000	19.11881	0.00000	0.00000	1.66921	0.00000
1.5300	82.439	770.950	-3.631	-0.319	0.000	0.459	18.431	684.037	-114.278	-0.404	0.000	0.081	0.00000	18.79601	0.00000	0.00000	1.79812	0.00000
1.5325	81.360	753.565	-4.401	-0.320	0.000	0.459	15.104	670.130	-114.416	-0.404	0.000	0.081	0.00000	18.28509	0.00000	0.00000	1.84890	0.00000
1.5350	80.017	734.442	-5.301	-0.320	0.000	0.459	11.991	653.818	-114.297	-0.403	0.000	0.081	0.00000	17.75922	0.00000	0.00000	1.93486	0.00000
1.5375	78.328	713.595	-5.796	-0.320	0.000	0.458	8.443	635.960	-114.488	-0.403	0.000	0.081	0.00000	17.28934	0.00000	0.00000	2.05083	0.00000
1.5400	77.112	689.601	-7.307	-0.321	0.000	0.458	5.322	616.400	-113.020	-0.403	0.000	0.081	0.00000	16.82464	0.00000	0.00000	2.31754	0.00000
1.5425	75.600	664.405	-8.149	-0.322	0.000	0.458	1.883	593.579	-110.512	-0.402	0.000	0.080	0.00000	16.33697	0.00000	0.00000	2.34442	0.00000
1.5450	74.041	638.693	-9.297	-0.323	0.000	0.457	-1.297	569.555	-107.958	-0.401	0.000	0.081	0.00000	15.94094	0.00000	0.00000	2.33962	0.00000
1.5475	72.401	607.940	-10.439	-0.324	0.000	0.456	-4.357	542.803	-103.532	-0.400	0.000	0.080	0.00000	15.49816	0.00000	0.00000	2.50978	0.00000
1.5500	70.798	575.438	-12.111	-0.325	0.000	0.455	-7.166	513.483	-97.622	-0.399	0.000	0.080	0.00000	15.02474	0.00000	0.00000	2.70832	0.00000
1.5525	69.304	540.683	-13.120	-0.326	0.000	0.454	-10.456	483.300	-92.153	-0.398	0.000	0.080	0.00000	14.41096	0.00000	0.00000	2.73199	0.00000
1.5550	68.901	505.034	-15.372	-0.327	0.000	0.453	-12.795	450.547	-85.416	-0.396	0.000	0.080	0.00000	13.79633	0.00000	0.00000	2.80834	0.00000
1.5575	68.769	468.678	-17.764	-0.328	0.000	0.453	-17.136	416.747	-80.178	-0.395	0.000	0.081	0.00000	13.02345	0.00000	0.00000	2.61610	0.00000
1.5600	67.854	428.858	-19.881	-0.329	0.000	0.451	-19.529	377.986	-72.883	-0.392	0.000	0.082	0.00000	12.16861	0.00000	0.00000	2.67024	0.00000
1.5625	68.538	384.140	-21.920	-0.331	0.000	0.450	-19.444	333.738	-64.407	-0.388	0.000	0.083	0.00000	11.11892	0.00000	0.00000	2.94599	0.00000
1.5650	68.433	334.760	-24.117	-0.333	0.000	0.448	-18.543	286.407	-54.488	-0.383	0.000	0.084	0.00000	10.36437	0.00000	0.00000	3.16429	0.00000
1.5675	66.167	287.314	-26.129	-0.334	0.000	0.446	-17.259	238.747	-42.858	-0.376	0.000	0.088	0.00000	9.50413	0.00000	0.00000	3.51992	0.00000
1.5700	64.294	242.845	-22.538	-0.336	0.000	0.443	-18.018	198.120	-31.659	-0.370	0.000	0.092	0.00000	8.62721	0.00000	0.00000	3.75905	0.00000
1.5725	61.363	204.161	-10.642	-0.339	0.000	0.438	-17.876	161.959	-18.562	-0.360	0.000	0.100	0.00000	7.77880	0.00000	0.00000	3.70623	0.00000
1.5750	59.088	169.779	-5.652	-0.340	0.000	0.436	-16.201	126.622	-12.015	-0.348	0.000	0.109	0.00000	6.89657	0.00000	0.00000	4.21934	0.00000
1.5775	53.407	133.486	-6.958	-0.343	0.000	0.438	-11.645	91.960	-5.673	-0.331	0.000	0.121	0.00000	5.87594	0.00000	0.00000	4.68479	0.00000
1.5800	49.990	98.255	0.209	-0.354	0.000	0.430	-14.953	60.612	3.616	-0.308	0.000	0.142	0.00000	5.09439	0.00000	0.00000	6.71849	0.00000
1.5825	49.892	68.723	9.067	-0.369	0.000	0.419	-16.814	33.319	9.906	-0.278	0.000	0.179	0.00000	4.21815	0.00000	0.00000	9.88800	0.00000
1.5850	45.120	49.636	12.406	-0.370	0.000	0.428	-8.927	10.066	7.334	-0.237	0.000	0.232	0.00000	2.43842	0.00000	0.00000	16.24311	0.00000
1.5875	37.522	28.491	11.844	-0.398	0.000	0.457	-1.613	-2.929	-0.913	-0.197	0.000	0.283	0.00000	0.35198	0.00000	0.00000	0.24581	0.00000
1.5900	28.217	5.466	4.210	1.368	0.000	-0.024	-1.352	-2.542	0.919	-0.194	0.000	0.269	0.00000	-4.59308	0.00000	0.00000	-2.88463	0.00000
1.5925	21.976	-6.468	0.204	-0.170	0.000	0.394	-3.860	3.595	-3.457	-0.211	0.000	0.252	0.00000	6.12301	0.00000	0.00000	6.08377	0.00000
1.5950	21.905	-1.790	1.335	-0.121	0.000	0.343	-5.417	5.679	-3.680	-0.221	0.000	0.241	0.00000	19.64021	0.00000	0.00000	7.69497	0.00000
1.5975	25.510	5.646	1.965	1.513	0.000	-0.979	-5.130	4.117	-2.638	-0.218	0.000	0.242	0.00000	-6.72812	0.00000	0.00000	9.27816	0.00000
1.6000	25.907	3.977	1.341	0.528	0.000	0.235	-5.374	1.726	-3.907	-0.213	0.000	0.250	0.00000	-4.15932	0.00000	0.00000	15.07412	0.00000
1.6025	25.587	2.108	2.204	0.253	0.000	0.433	-4.564	0.873	-1.675	-0.209	0.000	0.253	0.00000	-5.51805	0.00000	0.00000	34.62638	0.00000
1.6050	25.726	4.841	0.016	0.919	0.000	0.258	-3.900	2.244	-2.758	-0.209	0.000	0.255	0.00000	-1.10126	0.00000	0.00000	10.70336	0.00000
1.6075	25.251	6.509	-2.003	45.022	0.000	-27.140	-4.953	3.622	-2.063	-0.212	0.000	0.249	0.00000	-3.61617	0.00000	0.00000	11.61402	0.00000
1.6100	23.196	2.526	-1.637	0.123	0.000	0.210	-5.949	5.335	-3.071	-0.216	0.000	0.245	0.00000	-10.45485	0.00000	0.00000	9.39158	0.00000
1.6125	22.088	2.039	-0.825	0.106	0.000	0.253	-5.944	3.961	-3.688	-0.214	0.000	0.244	0.00000	-12.04174	0.00000	0.00000	10.09361	0.00000
1.6150	23.500	3.767	-0.526	0.340	0.000	0.127	-4.941	1.897	-3.774	-0.209	0.000	0.251	0.00000	-6.21144	0.00000	0.00000	12.27139	0.00000
1.6175	24.854	4.985	-0.923	0.951	0.000	0.074	-5.775	3.107	-2.856	-0.211	0.000	0.249	0.00000	-2.45191	0.00000	0.00000	13.39928	0.00000
1.6200	23.922	3.267	-0.821	0.340	0.000	0.287	-6.255	3.625	-2.638	-0.215	0.000	0.248	0.00000	-4.19851	0.00000	0.00000	13.79825	0.00000
1.6225	23.921	2.735	-1.310	0.259	0.000	0.285	-6.035	3.114	-2.726	-0.214	0.000	0.248	0.00000	-6.06153	0.00000	0.00000	14.61664	0.00000
1.6250	24.060	3.568	-2.210	0.368	0.000	0.142	-5.162	2.766	-2.987	-0.211	0.000	0.247	0.00000	-6.12681	0.00000	0.00000	12.18955	0.00000
1.6275	23.399	3.044	-2.695	0.259	0.000	0.162	-6.076	3.286	-2.990	-0.213	0.000	0.246	0.00000	-7.76751	0.00000	0.00000	13.35690	0.00000
1.6300	23.003	3.231	-1.938	0.324	0.000	0.185	-6.645	2.767	-2.992	-0.214	0.000	0.250	0.00000	-6.45165	0.00000	0.00000	17.18925	0.00000
1.6325	22.958	4.284	-1.936	0.569	0.000	0.105	-6.774	3.626	-3.342	-0.212	0.000	0.247	0.00000	-3.77632	0.00000	0.00000	13.45382	0.00000
1.6350	23.486	4.807	-1.937	0.784	0.000	0.042	-6.250	2.940	-3.386	-0.208	0.000	0.246	0.00000	-2.85124	0.00000	0.00000	13.68722	0.00000
1.6375	23.836	3.583	-2.070	0.392	0.000	0.195	-6.338	3.632	-2.990	-0.211	0.000	0.246	0.00000	-4.78315	0.00000	0.00000	13.08019	0.00000
1.6400	23.084	2.889	-2.552	0.269	0.000	0.234	-6.468	3.116	-3.080	-0.211	0.000	0.246	0.00000	-6.11622	0.00000	0.00000	14.57333	0.00000
1.6425	23.043	3.923	-2.911	0.446	0.000	0.145	-7.077	3.284	-3.476	-0.212	0.000	0.247	0.00000	-4.09755	0.00000	0.00000	14.94249	0.00000
1.6450	22.961	3.756	-2.512	0.372	0.000	0.215	-6.947	4.145	-3.388	-0.211	0.000	0.244	0.00000	-3.74760	0.00000	0.00000	12.28532	0.00000
